<?xml version="1.0" encoding="UTF-8" standalone="no"?>
<!-- Created with Inkscape (http://www.inkscape.org/) -->
<svg xmlns:dc="http://purl.org/dc/elements/1.1/" xmlns:cc="http://creativecommons.org/ns#" xmlns:rdf="http://www.w3.org/1999/02/22-rdf-syntax-ns#" xmlns:svg="http://www.w3.org/2000/svg" xmlns="http://www.w3.org/2000/svg" xmlns:sodipodi="http://sodipodi.sourceforge.net/DTD/sodipodi-0.dtd" xmlns:inkscape="http://www.inkscape.org/namespaces/inkscape" width="200" height="200" viewBox="0 0 52.916666 52.916668" version="1.1" id="svg8" inkscape:version="0.92.4 (unknown)" sodipodi:docname="複素平面 格子なしpass.svg">
  <defs id="defs2"/>
  <sodipodi:namedview id="base" pagecolor="#ffffff" bordercolor="#666666" borderopacity="1.0" inkscape:pageopacity="0.0" inkscape:pageshadow="2" inkscape:zoom="1.251715" inkscape:cx="342.72543" inkscape:cy="62.105927" inkscape:document-units="mm" inkscape:current-layer="layer1" showgrid="false" inkscape:window-width="1280" inkscape:window-height="736" inkscape:window-x="0" inkscape:window-y="27" inkscape:window-maximized="1" inkscape:snap-bbox="true" inkscape:object-paths="true" units="px" fit-margin-top="0" fit-margin-left="0" fit-margin-right="0" fit-margin-bottom="0" inkscape:snap-bbox-midpoints="true" inkscape:snap-global="false" inkscape:snap-intersection-paths="true" inkscape:snap-bbox-edge-midpoints="true" inkscape:snap-smooth-nodes="true" inkscape:bbox-nodes="true" inkscape:bbox-paths="true"/>
  <metadata id="metadata5">
    <rdf:RDF>
      <cc:Work rdf:about="">
        <dc:format>image/svg+xml</dc:format>
        <dc:type rdf:resource="http://purl.org/dc/dcmitype/StillImage"/>
        <dc:title/>
      </cc:Work>
    </rdf:RDF>
  </metadata>
  <g inkscape:label="レイヤー 1" inkscape:groupmode="layer" id="layer1" transform="translate(28.046608,208.53882)">
    <path style="fill:none;stroke:#000000;stroke-width:0.26458332px;stroke-linecap:butt;stroke-linejoin:miter;stroke-opacity:1" d="M -22.754941,-169.91426 H 19.693366" id="path45" inkscape:connector-curvature="0" sodipodi:nodetypes="cc"/>
    <path style="fill:none;stroke:#000000;stroke-width:0.26458332px;stroke-linecap:butt;stroke-linejoin:miter;stroke-opacity:1" d="m -10.797672,-157.20966 v -48.88313" id="path47" inkscape:connector-curvature="0" sodipodi:nodetypes="cc"/>
    <path style="fill:none;stroke:#000000;stroke-width:0.26458332px;stroke-linecap:butt;stroke-linejoin:miter;stroke-opacity:1" d="m 19.693366,-169.91426 -3.541742,-0.94901" id="path49" inkscape:connector-curvature="0"/>
    <path style="fill:none;stroke:#000000;stroke-width:0.26458332px;stroke-linecap:butt;stroke-linejoin:miter;stroke-opacity:1" d="m 19.659126,-169.91877 -3.541742,0.94901" id="path49-3" inkscape:connector-curvature="0"/>
    <path style="fill:none;stroke:#000000;stroke-width:0.26458332px;stroke-linecap:butt;stroke-linejoin:miter;stroke-opacity:1" d="m -10.793162,-206.23997 -0.94901,3.54175" id="path49-6" inkscape:connector-curvature="0"/>
    <path style="fill:none;stroke:#000000;stroke-width:0.26458332px;stroke-linecap:butt;stroke-linejoin:miter;stroke-opacity:1" d="m -10.797672,-206.20573 0.9490097,3.54175" id="path49-3-7" inkscape:connector-curvature="0"/>
    <g aria-label="O" style="font-style:normal;font-variant:normal;font-weight:normal;font-stretch:normal;font-size:4.23333311px;line-height:1.25;font-family:'Liberation Sans';-inkscape-font-specification:'Liberation Sans';letter-spacing:0px;word-spacing:0px;fill:#000000;fill-opacity:1;stroke:none;stroke-width:0.26458332" id="text860-9-2-8-8-8-9-5">
      <path d="m -14.795362,-167.52883 q 0,0.66766 0.223242,0.96738 0.223243,0.29972 0.698666,0.29972 0.473356,0 0.698665,-0.29972 0.225309,-0.29972 0.225309,-0.96738 0,-0.66353 -0.225309,-0.95498 -0.223242,-0.29353 -0.698665,-0.29353 -0.477491,0 -0.700733,0.29353 -0.221175,0.29145 -0.221175,0.95498 z m -0.432015,0 q 0,-1.41387 1.353923,-1.41387 0.669726,0 1.012858,0.35967 0.343131,0.3576 0.343131,1.0542 0,0.70693 -0.347265,1.06867 -0.347266,0.36173 -1.008724,0.36173 -0.659392,0 -1.006657,-0.35967 -0.347266,-0.36173 -0.347266,-1.07073 z" style="font-style:normal;font-variant:normal;font-weight:normal;font-stretch:normal;font-family:'Liberation Serif';-inkscape-font-specification:'Liberation Serif';stroke-width:0.26458332" id="path1115"/>
    </g>
    <g aria-label="I" style="font-style:normal;font-variant:normal;font-weight:normal;font-stretch:normal;font-size:3.17499995px;line-height:1.25;font-family:IPA明朝;-inkscape-font-specification:IPA明朝;letter-spacing:0px;word-spacing:0px;fill:#000000;fill-opacity:1;stroke:none;stroke-width:0.26458332" id="text860-9-2-8-8-8-9-1-2">
      <!-- <path d="m 17.046963,-165.90933 h 0.917773 l 0.167432,-0.20153 q 0.142627,0.12402 0.221692,0.22324 l -0.03721,0.0574 h -1.229382 q 0.368969,0.5612 1.347204,0.66973 -0.08372,0.0791 -0.133325,0.20308 -0.928626,-0.17983 -1.286743,-0.82475 -0.20929,0.72088 -1.378211,0.86971 l -0.04341,-0.0791 q 1.020093,-0.19689 1.234033,-0.83871 h -1.142566 l -0.04496,-0.0791 h 1.210779 q 0.0248,-0.11782 0.0248,-0.21394 v -0.17828 h -0.835608 l -0.03411,-0.0791 h 0.869714 v -0.35811 h -0.923974 l -0.03566,-0.0791 h 0.959631 v -0.33331 q 0.320911,0.005 0.320911,0.0729 0,0.0388 -0.133325,0.0853 v 0.17518 h 0.660425 l 0.155029,-0.19378 q 0.122473,0.10852 0.21394,0.21239 l -0.04186,0.0605 h -0.987536 v 0.35811 h 0.561206 l 0.150378,-0.18448 q 0.100769,0.0822 0.199988,0.20619 l -0.03566,0.0574 h -0.875915 v 0.18759 q 0,0.10386 -0.0155,0.20463 z m -0.151929,-1.45882 v -0.41548 q 0.31781,0.0139 0.31781,0.0791 0,0.0403 -0.136426,0.0915 v 0.24495 h 0.978235 l 0.117823,-0.14883 q 0.234094,0.22014 0.234094,0.27905 0,0.0326 -0.05116,0.0372 l -0.10697,0.0139 q -0.05891,0.0589 -0.229443,0.18759 l -0.06356,-0.0481 q 0.06821,-0.11162 0.105419,-0.24185 h -2.095996 q 0.0031,0.009 0.0031,0.0217 0.0015,0.0232 0.0015,0.0403 0,0.17984 -0.08061,0.33332 -0.07131,0.13332 -0.16123,0.13332 -0.117823,0 -0.117823,-0.10232 0,-0.0512 0.06976,-0.12092 0.167431,-0.17828 0.186035,-0.5147 l 0.08061,0.0124 q 0.0062,0.0326 0.0155,0.11782 z" style="font-style:normal;font-variant:normal;font-weight:normal;font-stretch:normal;font-size:3.17499995px;font-family:IPA明朝;-inkscape-font-specification:IPA明朝;stroke-width:0.26458332" id="path1107"/> -->
      <!-- <path d="m 19.071645,-166.92632 h 0.238746 v -0.30231 h -0.572058 l -0.02171,-0.0791 h 0.593763 v -0.45734 q 0.310058,0.005 0.310058,0.0729 0,0.0403 -0.131775,0.0822 v 0.30231 h 0.296106 l 0.142627,-0.18449 q 0.08992,0.0806 0.190686,0.20929 l -0.03566,0.0543 h -0.593762 v 0.30231 h 0.255799 l 0.11007,-0.12712 q 0.181385,0.13797 0.181385,0.18138 0,0.0186 -0.02635,0.0341 l -0.07597,0.0481 v 0.92087 h -0.164331 v -0.10542 h -0.280603 v 0.37517 h 0.277503 l 0.145727,-0.18293 q 0.10542,0.0899 0.206189,0.20774 l -0.03566,0.0543 h -0.593762 v 0.59996 h -0.178283 v -0.59996 h -0.598413 l -0.03101,-0.0791 h 0.629419 v -0.37517 h -0.257349 v 0.15038 h -0.172083 v -1.19838 q 0.09612,0.045 0.165882,0.0837 z m -0.0186,0.0791 v 0.33951 h 0.257349 v -0.33951 z m 0.716235,0.79375 v -0.37517 h -0.280603 v 0.37517 z m 0,-0.45424 v -0.33951 h -0.280603 v 0.33951 z m -0.458886,0.0791 h -0.257349 v 0.37517 h 0.257349 z m 1.085205,-0.63717 h 0.336413 v -0.70539 q 0.31781,0.005 0.31781,0.0837 0,0.0419 -0.136425,0.0884 v 0.53331 h 0.367419 l 0.120923,-0.15193 q 0.190686,0.16123 0.190686,0.20308 0,0.0171 -0.02015,0.031 l -0.08527,0.0605 v 2.00298 h -0.178284 v -0.24029 H 20.36614 v 0.24029 h -0.178284 v -2.24792 q 0.150379,0.0713 0.20774,0.10232 z m -0.02946,0.0791 v 0.80305 h 0.365869 v -0.80305 z m 0.942578,1.74718 v -0.86506 h -0.395324 v 0.86506 z m 0,-0.94413 v -0.80305 h -0.395324 v 0.80305 z m -0.576709,0.0791 H 20.36614 v 0.86506 h 0.365869 z" style="font-style:normal;font-variant:normal;font-weight:normal;font-stretch:normal;font-size:3.17499995px;font-family:IPA明朝;-inkscape-font-specification:IPA明朝;stroke-width:0.26458332" id="path1109"/> -->
    </g>
    <g aria-label="R" style="font-style:normal;font-variant:normal;font-weight:normal;font-stretch:normal;font-size:3.17499995px;line-height:1.25;font-family:IPA明朝;-inkscape-font-specification:IPA明朝;letter-spacing:0px;word-spacing:0px;writing-mode:tb-rl;text-orientation:upright;fill:#000000;fill-opacity:1;stroke:none;stroke-width:0.26458332" id="text860-9-2-8-8-8-9-1-2-2">
      <!-- <path d="m -14.203148,-199.65819 v 0.57206 q 0,0.5488 -0.102319,0.90072 -0.09922,0.35967 -0.379822,0.66972 l -0.06356,-0.0465 q 0.358118,-0.54106 0.358118,-1.52704 v -0.75655 q 0.07441,0.0357 0.172082,0.0868 l 0.04031,0.0217 h 0.756543 v -0.64182 q 0.333313,0.005 0.333313,0.076 0,0.0419 -0.151929,0.0884 v 0.16278 h 0.775147 l 0.139526,-0.18758 q 0.09147,0.0744 0.196887,0.20929 l -0.03876,0.0574 h -1.072803 v 0.23564 h 0.94878 l 0.124023,-0.13952 q 0.226343,0.20619 0.226343,0.26665 0,0.0264 -0.04186,0.031 l -0.09922,0.0155 q -0.117822,0.12867 -0.221692,0.20464 l -0.06356,-0.0388 q 0.06976,-0.15038 0.09922,-0.26045 h -0.984436 v 0.29921 l 0.427881,-0.0357 0.130224,-0.17208 0.03256,0.0202 q 0.08992,0.0543 0.193786,0.14263 l -0.03256,0.0667 -0.751892,0.0605 v 0.18449 q 0,0.0729 0.04031,0.0868 0.04806,0.0155 0.327111,0.0155 0.443384,0 0.496094,-0.0667 0.04031,-0.0574 0.07286,-0.24649 l 0.07596,0.0232 q -0.0031,0.0279 -0.0031,0.0636 0,0.19224 0.111621,0.19689 -0.0047,0.11937 -0.09302,0.15193 -0.10387,0.0388 -0.669726,0.0388 -0.403077,0 -0.47284,-0.0512 -0.06356,-0.0434 -0.06356,-0.18449 v -0.19689 l -0.654223,0.0543 -0.04186,-0.0791 0.696081,-0.0574 v -0.31471 z m 0.672827,1.95337 v -0.97514 q 0.305408,0.005 0.305408,0.0729 0,0.0372 -0.127124,0.0806 v 0.82166 h 0.348816 v -0.98444 q 0.305408,0.005 0.305408,0.0791 0,0.0387 -0.124024,0.076 v 0.82941 h 0.536402 l 0.15968,-0.20619 q 0.155029,0.14573 0.209289,0.22169 l -0.03256,0.0636 h -2.292883 l -0.04031,-0.0791 z m -0.573608,-0.79375 q 0.390674,0.27595 0.390674,0.5147 0,0.12712 -0.124024,0.12712 -0.06511,0 -0.08837,-0.11162 -0.05271,-0.2496 -0.229444,-0.47904 z m 1.424719,0.62477 q 0.186035,-0.34262 0.31471,-0.69453 0.275952,0.11007 0.275952,0.17518 0,0.045 -0.145728,0.0496 -0.155029,0.25735 -0.381372,0.50849 z" style="font-style:normal;font-variant:normal;font-weight:normal;font-stretch:normal;font-size:3.17499995px;font-family:IPA明朝;-inkscape-font-specification:IPA明朝;writing-mode:tb-rl;text-orientation:upright;stroke-width:0.26458332" id="path1121"/> -->
      <!-- <path d="m -14.390733,-196.37157 h 0.238745 v -0.30231 h -0.572058 l -0.0217,-0.0791 h 0.593762 v -0.45734 q 0.310059,0.005 0.310059,0.0729 0,0.0403 -0.131775,0.0822 v 0.30231 h 0.296106 l 0.142627,-0.18449 q 0.08992,0.0806 0.190686,0.20929 l -0.03566,0.0543 h -0.593762 v 0.30231 h 0.255798 l 0.110071,-0.12712 q 0.181384,0.13797 0.181384,0.18138 0,0.0186 -0.02636,0.0341 l -0.07596,0.0481 v 0.92087 h -0.164331 v -0.10542 h -0.280603 v 0.37517 h 0.277502 l 0.145728,-0.18293 q 0.10542,0.0899 0.206189,0.20774 l -0.03566,0.0543 h -0.593762 v 0.59996 h -0.178284 v -0.59996 h -0.598413 l -0.03101,-0.0791 h 0.629419 v -0.37517 h -0.257349 v 0.15038 h -0.172082 v -1.19838 q 0.09612,0.045 0.165881,0.0837 z m -0.0186,0.0791 v 0.33951 h 0.257349 v -0.33951 z m 0.716236,0.79375 v -0.37518 h -0.280603 v 0.37518 z m 0,-0.45424 v -0.33951 h -0.280603 v 0.33951 z m -0.458887,0.0791 h -0.257349 v 0.37518 h 0.257349 z m 1.085205,-0.63717 h 0.336414 v -0.70538 q 0.31781,0.005 0.31781,0.0837 0,0.0418 -0.136426,0.0884 v 0.5333 h 0.367419 l 0.120923,-0.15192 q 0.190686,0.16123 0.190686,0.20308 0,0.0171 -0.02015,0.031 l -0.08527,0.0605 v 2.00298 h -0.178283 v -0.2403 h -0.942579 v 0.2403 h -0.178283 v -2.24793 q 0.150378,0.0713 0.207739,0.10232 z m -0.02946,0.0791 v 0.80305 h 0.36587 v -0.80305 z m 0.942579,1.74718 v -0.86506 h -0.395325 v 0.86506 z m 0,-0.94413 v -0.80305 h -0.395325 v 0.80305 z m -0.576709,0.0791 h -0.36587 v 0.86506 h 0.36587 z" style="font-style:normal;font-variant:normal;font-weight:normal;font-stretch:normal;font-size:3.17499995px;font-family:IPA明朝;-inkscape-font-specification:IPA明朝;writing-mode:tb-rl;text-orientation:upright;stroke-width:0.26458332" id="path1123"/> -->
    </g>
    <g aria-label="Z = a + bi" style="font-style:normal;font-variant:normal;font-weight:normal;font-stretch:normal;font-size:3.88055563px;line-height:1.25;font-family:'Liberation Sans';-inkscape-font-specification:'Liberation Sans';letter-spacing:0px;word-spacing:0px;fill:#000000;fill-opacity:1;stroke:none;stroke-width:0.26458332" id="text860-9-2-8-8-8-9-1-4">
      <path d="m 5.1555951,-182.50218 1.4248915,-2.19986 H 6.106786 q -0.4680163,0 -0.6442329,0.0379 l -0.058739,0.39981 H 5.2730728 v -0.60066 h 1.7299548 v 0.16296 l -1.4343656,2.21881 h 0.5494928 q 0.2197971,0 0.4452786,-0.0208 0.2273763,-0.0208 0.3202216,-0.0417 l 0.1117934,-0.48507 h 0.1326361 l -0.05116,0.70676 H 5.1555951 Z" style="font-style:normal;font-variant:normal;font-weight:normal;font-stretch:normal;font-size:3.88055563px;font-family:'Liberation Serif';-inkscape-font-specification:'Liberation Serif';stroke-width:0.26458332" id="path1094"/>
      <path d="m 10.311353,-183.32073 v 0.19327 H 8.5056058 v -0.19327 z m 0,-0.77687 v 0.19327 H 8.5056058 v -0.19327 z" style="font-style:normal;font-variant:normal;font-weight:normal;font-stretch:normal;font-size:3.88055563px;font-family:'Liberation Serif';-inkscape-font-specification:'Liberation Serif';stroke-width:0.26458332" id="path1096"/>
      <path d="m 12.967866,-182.4567 0.214112,0.0474 -0.01516,0.0853 h -0.540019 l 0.05495,-0.29559 q -0.320222,0.33538 -0.585494,0.33538 -0.229272,0 -0.369487,-0.16863 -0.138321,-0.16864 -0.138321,-0.46423 0,-0.33159 0.144005,-0.6196 0.1459,-0.2899 0.388435,-0.45096 0.242535,-0.16296 0.526755,-0.16296 0.229271,0 0.432015,0.0796 l 0.08527,-0.0644 h 0.10232 z m -0.05495,-1.45332 q -0.0739,-0.0512 -0.13832,-0.0701 -0.06442,-0.0208 -0.159164,-0.0208 -0.18948,0 -0.348643,0.14401 -0.157269,0.14211 -0.248219,0.38464 -0.09095,0.24254 -0.09095,0.50592 0,0.20274 0.08337,0.32401 0.08337,0.12126 0.227377,0.12126 0.214112,0 0.468016,-0.26337 z" style="font-style:italic;font-variant:normal;font-weight:normal;font-stretch:normal;font-size:3.88055563px;font-family:'Liberation Serif';-inkscape-font-specification:'Liberation Serif Italic'" id="path1098"/>
      <path d="m 15.575114,-183.5159 v 0.80719 h -0.195165 v -0.80719 h -0.803396 v -0.19327 h 0.803396 v -0.80718 h 0.195165 v 0.80718 H 16.3823 v 0.19327 z" style="font-style:normal;font-variant:normal;font-weight:normal;font-stretch:normal;font-size:3.88055563px;font-family:'Liberation Serif';-inkscape-font-specification:'Liberation Serif';stroke-width:0.26458332" id="path1100"/>
      <path d="m 18.121729,-184.88584 -0.252009,-0.0455 0.01516,-0.0853 h 0.56844 l -0.140215,0.83561 q -0.03221,0.216 -0.0739,0.36569 0.151584,-0.15537 0.310747,-0.24632 0.161059,-0.0909 0.29559,-0.0909 0.23685,0 0.37896,0.17053 0.14211,0.16864 0.14211,0.46233 0,0.32591 -0.14211,0.61581 -0.140215,0.28801 -0.388434,0.45286 -0.24822,0.16485 -0.541914,0.16485 -0.166743,0 -0.327801,-0.0417 -0.159163,-0.0436 -0.278536,-0.11747 z m -0.108004,2.35903 q 0.109899,0.091 0.305063,0.091 0.19327,0 0.356223,-0.14211 0.164848,-0.144 0.257693,-0.38464 0.09474,-0.24254 0.09474,-0.50781 0,-0.21222 -0.08906,-0.3278 -0.08716,-0.11748 -0.234956,-0.11748 -0.111793,0 -0.242534,0.0739 -0.128847,0.0739 -0.246325,0.18948 z" style="font-style:italic;font-variant:normal;font-weight:normal;font-stretch:normal;font-size:3.88055563px;font-family:'Liberation Serif';-inkscape-font-specification:'Liberation Serif Italic'" id="path1102"/>
      <path d="m 20.202222,-184.68688 q 0,0.0834 -0.06063,0.144 -0.06063,0.0606 -0.1459,0.0606 -0.08337,0 -0.144005,-0.0606 -0.06063,-0.0606 -0.06063,-0.144 0,-0.0853 0.06063,-0.1459 0.06063,-0.0606 0.144005,-0.0606 0.08527,0 0.1459,0.0606 0.06063,0.0606 0.06063,0.1459 z m -0.01895,2.23018 0.305064,0.0474 v 0.0853 h -0.922769 v -0.0853 l 0.303168,-0.0474 v -1.51584 l -0.252009,-0.0474 v -0.0853 h 0.566546 z" style="font-style:normal;font-variant:normal;font-weight:normal;font-stretch:normal;font-size:3.88055563px;font-family:'Liberation Serif';-inkscape-font-specification:'Liberation Serif';stroke-width:0.26458332" id="path1104"/>
    </g>
    <path style="fill:none;stroke:#000000;stroke-width:0.1;stroke-linecap:butt;stroke-linejoin:miter;stroke-miterlimit:4;stroke-dasharray:0.79499996, 0.79499996;stroke-dashoffset:0;stroke-opacity:1" d="m 3.544387,-169.91426 v -11.16497" id="path197" inkscape:connector-curvature="0" sodipodi:nodetypes="cc"/>
    <path style="fill:none;stroke:#000000;stroke-width:0.1;stroke-linecap:butt;stroke-linejoin:miter;stroke-miterlimit:4;stroke-dasharray:0.79499996, 0.79499996;stroke-dashoffset:0;stroke-opacity:1" d="M -10.797672,-180.97353 H 3.544387" id="path199" inkscape:connector-curvature="0"/>
    <circle style="fill:#000000;fill-opacity:1;stroke:#000000;stroke-width:0.17005113;stroke-miterlimit:4;stroke-dasharray:none;stroke-dashoffset:0;stroke-opacity:1" id="path204" cx="3.5443881" cy="-180.9735" r="0.32350183"/>
    <g aria-label="a" style="font-style:normal;font-variant:normal;font-weight:normal;font-stretch:normal;font-size:3.88055563px;line-height:1.25;font-family:'Liberation Sans';-inkscape-font-specification:'Liberation Sans';letter-spacing:0px;word-spacing:0px;fill:#000000;fill-opacity:1;stroke:none;stroke-width:0.26458332" id="text860-9-2-8-8-8-9-1-4-8">
      <path d="m 4.4096821,-167.16491 0.2141127,0.0474 -0.015159,0.0853 H 4.0686176 l 0.054949,-0.29559 q -0.3202216,0.33538 -0.585494,0.33538 -0.2292711,0 -0.3694865,-0.16864 -0.1383206,-0.16864 -0.1383206,-0.46423 0,-0.33159 0.144005,-0.6196 0.1458998,-0.2899 0.3884345,-0.45096 0.2425348,-0.16295 0.5267551,-0.16295 0.2292712,0 0.432015,0.0796 l 0.085266,-0.0644 h 0.1023194 z m -0.054949,-1.45331 q -0.073897,-0.0512 -0.1383206,-0.0701 -0.064423,-0.0208 -0.1591634,-0.0208 -0.1894803,0 -0.3486437,0.144 -0.1572686,0.14211 -0.2482191,0.38465 -0.090951,0.24253 -0.090951,0.50591 0,0.20274 0.083371,0.32401 0.083371,0.12127 0.2273763,0.12127 0.2141127,0 0.4680162,-0.26338 z" style="font-style:italic;font-variant:normal;font-weight:normal;font-stretch:normal;font-size:3.88055563px;font-family:'Liberation Serif';-inkscape-font-specification:'Liberation Serif Italic';stroke-width:0.26458332" id="path1112"/>
    </g>
    <g aria-label="b" style="font-style:normal;font-variant:normal;font-weight:normal;font-stretch:normal;font-size:3.88055563px;line-height:1.25;font-family:'Liberation Sans';-inkscape-font-specification:'Liberation Sans';letter-spacing:0px;word-spacing:0px;fill:#000000;fill-opacity:1;stroke:none;stroke-width:0.26458332" id="text860-9-2-8-8-8-9-1-4-5">
      <path d="m -13.3075,-182.38233 -0.252009,-0.0455 0.01516,-0.0853 h 0.568441 l -0.140215,0.83561 q -0.03221,0.216 -0.0739,0.36569 0.151585,-0.15537 0.310748,-0.24632 0.161058,-0.091 0.295589,-0.091 0.236851,0 0.378961,0.17053 0.14211,0.16864 0.14211,0.46233 0,0.32591 -0.14211,0.61581 -0.140216,0.28801 -0.388435,0.45286 -0.248219,0.16485 -0.541913,0.16485 -0.166743,0 -0.327801,-0.0417 -0.159164,-0.0436 -0.278536,-0.11747 z m -0.108004,2.35903 q 0.109899,0.0909 0.305063,0.0909 0.19327,0 0.356223,-0.14211 0.164848,-0.14401 0.257693,-0.38465 0.09474,-0.24253 0.09474,-0.5078 0,-0.21222 -0.08906,-0.3278 -0.08716,-0.11748 -0.234956,-0.11748 -0.111793,0 -0.242535,0.0739 -0.128846,0.0739 -0.246324,0.18948 z" style="font-style:italic;font-variant:normal;font-weight:normal;font-stretch:normal;font-size:3.88055563px;font-family:'Liberation Serif';-inkscape-font-specification:'Liberation Serif Italic';stroke-width:0.26458332" id="path1118"/>
    </g>
  </g>
</svg>